name C:\Users\u0101727\Documents\MyRepositories\upper-imu-dc\Results\main_tracking\Case_24\SHRUG01_linearAccelerations_bodyFrame.mot
datacolumns 4
datarows 141
range 0.51000000 1.91000000
endheader 
time	radius_imu_x	radius_imu_y	radius_imu_z	
          0.51000000	         -4.49316437	          9.44119962	          4.41752360	
          0.52000000	         -3.08499658	          9.23118325	          3.50603039	
          0.53000000	         -2.28396989	          9.14672031	          2.88634838	
          0.54000000	         -1.88303241	          9.08336796	          2.48125700	
          0.55000000	         -1.71827867	          9.04014688	          2.23790991	
          0.56000000	         -1.65223385	          9.02288292	          2.11280576	
          0.57000000	         -1.60389304	          9.03379540	          2.07119040	
          0.58000000	         -1.54790963	          9.06850649	          2.08728126	
          0.59000000	         -1.48885105	          9.11752324	          2.14443342	
          0.60000000	         -1.44184121	          9.17141381	          2.23579658	
          0.61000000	         -1.42165584	          9.22260700	          2.36128605	
          0.62000000	         -1.44089444	          9.26666768	          2.52441503	
          0.63000000	         -1.50842889	          9.30294064	          2.72907771	
          0.64000000	         -1.62916140	          9.33427833	          2.97653254	
          0.65000000	         -1.80632482	          9.36529881	          3.26214962	
          0.66000000	         -2.04335490	          9.39974460	          3.57225980	
          0.67000000	         -2.34347932	          9.43903488	          3.88224952	
          0.68000000	         -2.70730968	          9.48348733	          4.15773497	
          0.69000000	         -3.13549515	          9.53335894	          4.35784187	
          0.70000000	         -3.63761878	          9.58955215	          4.44139502	
          0.71000000	         -4.23481150	          9.65379340	          4.37396401	
          0.72000000	         -4.94698249	          9.72807474	          4.13262267	
          0.73000000	         -5.76239078	          9.81118130	          3.70218074	
          0.74000000	         -6.59141631	          9.89108462	          3.05737196	
          0.75000000	         -7.19811761	          9.93348305	          2.12597826	
          0.76000000	         -7.08963991	          9.86437481	          0.74631892	
          0.77000000	         -5.53305376	          9.65484481	         -1.22150767	
          0.78000000	          1.33234322	          7.89864788	         -4.16098059	
          0.79000000	          3.76319699	          9.11101862	         -3.36070045	
          0.80000000	          1.03292656	          9.21290638	          1.66925799	
          0.81000000	          1.80202651	          8.76359694	          5.01866971	
          0.82000000	          1.67141935	          9.54682201	          6.80187149	
          0.83000000	          3.23667058	          9.32198817	          5.62265703	
          0.84000000	          4.35138900	          8.91659015	          3.22462117	
          0.85000000	          0.27065524	          8.91135266	          2.56330572	
          0.86000000	          0.41716923	          7.51716959	         -1.61341348	
          0.87000000	          2.74255698	          8.14977868	         -5.63261128	
          0.88000000	         -2.72648707	          9.43306558	         -3.53174534	
          0.89000000	         -7.96329462	         10.41679570	          0.38929221	
          0.90000000	         -9.19317163	         10.64918159	          3.95361364	
          0.91000000	         -9.34045124	         10.79104777	          7.28342105	
          0.92000000	         -8.77718620	         10.91802334	         10.23967130	
          0.93000000	         -7.91175303	         11.09407431	         12.61731702	
          0.94000000	         -6.91735567	         11.31212075	         13.94187549	
          0.95000000	         -5.70511316	         11.39648693	         13.47718429	
          0.96000000	         -4.33093515	         11.45080953	         10.27713966	
          0.97000000	         -0.05861402	         10.88866623	          3.79063904	
          0.98000000	          1.60678126	         10.08361210	         -1.36673185	
          0.99000000	          0.17297901	          9.67592085	         -5.01265708	
          1.00000000	         -3.50512132	         10.31462030	         -2.59788698	
          1.01000000	         -7.14933717	         10.31731522	          1.16080651	
          1.02000000	         -7.39857439	          9.98857140	          4.34255615	
          1.03000000	         -6.76014838	          9.65512931	          6.75470215	
          1.04000000	         -5.42754334	          9.19639255	          7.83550782	
          1.05000000	         -3.40396518	          9.00086351	          7.21292686	
          1.06000000	          1.24652302	          8.29291186	          3.63676817	
          1.07000000	          2.93055737	          9.37273692	          0.90043749	
          1.08000000	          3.54259742	          9.07859218	         -0.22472796	
          1.09000000	          4.59344214	          9.04794471	         -1.81630215	
          1.10000000	          3.88217820	          9.75685450	         -1.19836637	
          1.11000000	          5.12025204	         10.21419757	         -1.01104741	
          1.12000000	          4.81114582	          8.68026413	          0.57238040	
          1.13000000	         -1.39876887	          8.44275554	          4.23587951	
          1.14000000	         -3.78826571	          8.62926271	          6.68771258	
          1.15000000	         -5.61910052	          9.01563096	          7.20805998	
          1.16000000	         -6.71036060	          9.31749694	          6.87343082	
          1.17000000	         -7.23275775	          9.41006589	          6.21178796	
          1.18000000	         -7.29135548	          9.38747232	          5.57449132	
          1.19000000	         -6.96833398	          9.33624117	          5.09581641	
          1.20000000	         -6.36292033	          9.31419680	          4.78791071	
          1.21000000	         -5.59335678	          9.33451795	          4.59262329	
          1.22000000	         -4.78536256	          9.38025304	          4.42523327	
          1.23000000	         -4.05132553	          9.42610587	          4.20383458	
          1.24000000	         -3.47362070	          9.45687695	          3.86655336	
          1.25000000	         -3.09811895	          9.47441517	          3.37764792	
          1.26000000	         -2.93709340	          9.49307757	          2.72626175	
          1.27000000	         -2.97654618	          9.52780395	          1.92309979	
          1.28000000	         -3.18354506	          9.57870747	          0.99959332	
          1.29000000	         -3.51228380	          9.61252746	          0.00997073	
          1.30000000	         -3.91187298	          9.54176943	         -0.96633482	
          1.31000000	         -4.33901066	          9.20298931	         -1.83142970	
          1.32000000	         -4.77734372	          8.36642703	         -2.48421909	
          1.33000000	         -5.23523559	          6.75709973	         -2.89177008	
          1.34000000	         -5.72149730	          4.46866257	         -3.02401869	
          1.35000000	         -5.56701777	          2.31250434	         -3.46858046	
          1.36000000	         -3.16503690	          5.85553942	         -3.05179590	
          1.37000000	         -2.84990876	          8.45549612	         -1.93143861	
          1.38000000	         -2.50762331	         10.98456281	         -0.98739666	
          1.39000000	         -3.13398086	         12.05531550	          0.73585787	
          1.40000000	         -3.83281503	         10.26154271	          1.62901926	
          1.41000000	         -3.61149407	          9.56033850	          2.60438638	
          1.42000000	         -4.14172007	          8.39773727	          3.28429277	
          1.43000000	         -3.64242104	          7.85853006	          4.06994969	
          1.44000000	         -2.86583300	          7.64018974	          4.73412292	
          1.45000000	         -2.01456192	          7.61985664	          5.30752503	
          1.46000000	         -1.23289402	          7.65159473	          5.78108771	
          1.47000000	         -0.60067198	          7.69651373	          6.16138773	
          1.48000000	         -0.14635109	          7.78422416	          6.44703502	
          1.49000000	          0.03442240	          7.80047067	          6.59665984	
          1.50000000	          0.17390519	          8.18050880	          6.69849449	
          1.51000000	          0.14575899	          8.60275719	          6.65593392	
          1.52000000	          0.07954487	          8.90003490	          6.56247609	
          1.53000000	         -0.77055436	          8.11603338	          6.03609250	
          1.54000000	         -1.50895714	          8.12965319	          5.58028860	
          1.55000000	         -2.28855921	          8.26729972	          5.08977301	
          1.56000000	         -2.98753800	          8.33097548	          4.61047907	
          1.57000000	         -3.49773546	          8.35050720	          4.20548758	
          1.58000000	         -3.76133769	          8.36759872	          3.90356855	
          1.59000000	         -3.78027142	          8.42351016	          3.70862058	
          1.60000000	         -3.60472284	          8.53546380	          3.60319543	
          1.61000000	         -3.31382665	          8.68274599	          3.55176764	
          1.62000000	         -3.00347106	          8.81848666	          3.51417289	
          1.63000000	         -2.76775398	          8.88450639	          3.45328188	
          1.64000000	         -2.65133729	          8.82303994	          3.33565896	
          1.65000000	         -2.60444920	          8.77011931	          3.19804723	
          1.66000000	         -2.58223632	          8.72599648	          2.99617466	
          1.67000000	         -1.93319300	          9.42266314	          3.39605466	
          1.68000000	         -2.67382612	          8.50047543	          2.77295514	
          1.69000000	         -3.19261311	          8.07171388	          2.44098913	
          1.70000000	         -3.39985224	          8.14919557	          2.35417242	
          1.71000000	         -3.44761687	          8.29953537	          2.40918507	
          1.72000000	         -3.35871377	          8.45749045	          2.61902667	
          1.73000000	         -3.12356926	          8.59089799	          2.96960141	
          1.74000000	         -2.75744811	          8.70792599	          3.44468672	
          1.75000000	         -2.28968598	          8.79668934	          4.00714216	
          1.76000000	         -1.76439425	          8.83994409	          4.60901484	
          1.77000000	         -1.22808506	          8.82555428	          5.20091218	
          1.78000000	         -0.72490744	          8.73076002	          5.72988825	
          1.79000000	         -0.31903880	          8.52499878	          6.14368889	
          1.80000000	         -0.06532898	          8.20033269	          6.38087680	
          1.81000000	         -0.03080391	          8.03124169	          6.46338119	
          1.82000000	         -0.17662756	          7.57096061	          6.29407701	
          1.83000000	          0.13890001	          7.96697073	          6.01331184	
          1.84000000	          0.08645327	          7.72467360	          5.55048462	
          1.85000000	          0.43997146	          7.73358099	          5.12146496	
          1.86000000	          1.13794040	          7.93175984	          4.89356475	
          1.87000000	          1.63489048	          7.69511787	          4.58946586	
          1.88000000	          1.78549603	          8.05861383	          4.34210294	
          1.89000000	          2.01468678	          8.49366023	          4.16551387	
          1.90000000	          2.04841706	          8.81127001	          4.05260788	
          1.91000000	          1.85617880	          8.99584944	          3.98923396	
